<svg xmlns="http://www.w3.org/2000/svg" width="80" height="80" viewBox="0 0 80 80">
  <g fill="none" fill-rule="evenodd">
    <g fill="#ffffff" fill-opacity="0.4">
      <path d="M0 0h40v40H0V0zm40 40h40v40H40V40zm0-40h2l-2 2V0zm0 4l4-4h2l-6 6V4zm0 4l8-8h2L40 10V8zm0 4L52 0h2L40 14v-2zm0 4L56 0h2L40 18v-2zm0 4L60 0h2L40 22v-2zm0 4L64 0h2L40 26v-2zm0 4L68 0h2L40 30v-2zm0 4L72 0h2L40 34v-2zm0 4L76 0h2L40 38v-2zm0 4l40-40v2L42 40h-2zm4 0l36-36v2L46 40h-2zm4 0l32-32v2L50 40h-2zm4 0l28-28v2L54 40h-2zm4 0l24-24v2L58 40h-2zm4 0l20-20v2L62 40h-2zm4 0l16-16v2L66 40h-2zm4 0l12-12v2L70 40h-2zm4 0l8-8v2l-6 6h-2zm4 0l4-4v4h-4zM0 40h2l-2 2v-2zm0 4l4-4h2L0 46v-2zm0 4l8-8h2L0 50v-2zm0 4l12-12h2L0 54v-2zm0 4l16-16h2L0 58v-2zm0 4l20-20h2L0 62v-2zm0 4l24-24h2L0 66v-2zm0 4l28-28h2L0 70v-2zm0 4l32-32h2L0 74v-2zm0 4l36-36h2L0 78v-2zm0 4l40-40v2L2 80H0v-2zm4 0l36-36v2L6 80H4zm4 0l32-32v2L10 80H8zm4 0l28-28v2L14 80h-2zm4 0l24-24v2L18 80h-2zm4 0l20-20v2L22 80h-2zm4 0l16-16v2L26 80h-2zm4 0l12-12v2L30 80h-2zm4 0l8-8v2l-6 6h-2zm4 0l4-4v4h-4z"/>
    </g>
  </g>
</svg>
